:FULLY-SPECIFIED
:FORCE-ALL-JOINTS-BE-3DOF
:DEGREES
1733
root -5.1333 15.5419 26.8557 911.173 -2.58325 192.461
lfemur -46.4359 20.2946 -20.7688
ltibia 64.3171 0 0
lfoot -16.3353 31.8961 0
ltoes -5.321 0 0
rfemur -24.2173 -17.7779 17.513
rtibia 67.7226 0 0
rfoot -8.84611 -24.565 0
rtoes 8.74823 0 0
lowerback 15.0319 2.22123 -4.24803
upperback -1.08072 2.41775 3.09747
thorax -9.77736 1.45764 5.27104
lowerneck 4.05232 -14.0651 -15.2426
upperneck -2.57803 -20.013 21.4757
head 2.6206 -10.3596 8.0962
lclavicle 2.83668e-14 2.30784e-14 0
lhumerus -48.649 -45.2166 117.067
lradius 96.3795 0 0
lwrist 36.6715 0 0
lhand -5.8473 40.2107 0
lfingers 7.12502 0 0
lthumb 19.9748 69.1478 0
rclavicle 2.83668e-14 2.30784e-14 0
rhumerus 52.0079 27.3543 -22.2129
rradius 103.525 0 0
rwrist -13.7083 0 0
rhand 4.13277 -27.9232 0
rfingers 7.12502 0 0
rthumb 29.4949 -55.1084 0
1734
root -5.05466 15.5416 26.887 911.656 -0.104646 192.908
lfemur -45.9922 19.9279 -20.1541
ltibia 64.7048 0 0
lfoot -16.0671 31.3963 0
ltoes -5.98353 0 0
rfemur -24.4409 -18.3969 17.8677
rtibia 67.3551 0 0
rfoot -9.02182 -24.5285 0
rtoes 8.18705 0 0
lowerback 15.0158 2.3472 -4.13984
upperback -1.08322 2.60033 3.01791
thorax -9.77152 1.53778 5.07995
lowerneck 3.82213 -13.8476 -15.0743
upperneck -2.37426 -19.6884 21.2294
head 2.62723 -10.1781 8.00966
lclavicle 2.51754e-14 2.22057e-14 0
lhumerus -49.3841 -44.4038 116.738
lradius 96.6527 0 0
lwrist 36.037 0 0
lhand -6.10072 39.8686 0
lfingers 7.12502 0 0
lthumb 19.731 68.8274 0
rclavicle 2.51754e-14 2.22057e-14 0
rhumerus 51.0089 26.5489 -22.954
rradius 101.46 0 0
rwrist -12.9945 0 0
rhand 3.4718 -28.052 0
rfingers 7.12502 0 0
rthumb 28.8613 -55.3199 0
1735
root -4.97603 15.5413 26.9184 912.138 2.37396 193.354
lfemur -45.5485 19.5612 -19.5393
ltibia 65.0926 0 0
lfoot -15.7988 30.8964 0
ltoes -6.64606 0 0
rfemur -24.6645 -19.016 18.2225
rtibia 66.9876 0 0
rfoot -9.19752 -24.492 0
rtoes 7.62586 0 0
lowerback 14.9997 2.47318 -4.03165
upperback -1.08572 2.78292 2.93835
thorax -9.76568 1.61793 4.88886
lowerneck 3.59194 -13.63 -14.9059
upperneck -2.17049 -19.3638 20.9832
head 2.63386 -9.9967 7.92312
lclavicle 2.19839e-14 2.1333e-14 0
lhumerus -50.1192 -43.591 116.409
lradius 96.9258 0 0
lwrist 35.4025 0 0
lhand -6.35414 39.5265 0
lfingers 7.12502 0 0
lthumb 19.4871 68.507 0
rclavicle 2.19839e-14 2.1333e-14 0
rhumerus 50.0098 25.7435 -23.6951
rradius 99.3945 0 0
rwrist -12.2807 0 0
rhand 2.81084 -28.1808 0
rfingers 7.12502 0 0
rthumb 28.2278 -55.5314 0
1736
root -4.89739 15.541 26.9498 912.621 4.85256 193.8
lfemur -45.1048 19.1946 -18.9246
ltibia 65.4803 0 0
lfoot -15.5306 30.3966 0
ltoes -7.30859 0 0
rfemur -24.8881 -19.6351 18.5773
rtibia 66.6201 0 0
rfoot -9.37323 -24.4555 0
rtoes 7.06467 0 0
lowerback 14.9836 2.59915 -3.92347
upperback -1.08822 2.96551 2.85879
thorax -9.75983 1.69808 4.69777
lowerneck 3.36176 -13.4125 -14.7375
upperneck -1.96671 -19.0393 20.737
head 2.64048 -9.81528 7.83658
lclavicle 1.87924e-14 2.04602e-14 0
lhumerus -50.8543 -42.7782 116.08
lradius 97.199 0 0
lwrist 34.768 0 0
lhand -6.60756 39.1843 0
lfingers 7.12502 0 0
lthumb 19.2432 68.1867 0
rclavicle 1.87924e-14 2.04602e-14 0
rhumerus 49.0107 24.9381 -24.4362
rradius 97.3294 0 0
rwrist -11.5669 0 0
rhand 2.14988 -28.3095 0
rfingers 7.12502 0 0
rthumb 27.5943 -55.7429 0
1737
root -4.81875 15.5407 26.9811 913.104 7.33117 194.246
lfemur -44.6611 18.8279 -18.3098
ltibia 65.868 0 0
lfoot -15.2623 29.8968 0
ltoes -7.97112 0 0
rfemur -25.1117 -20.2541 18.9321
rtibia 66.2525 0 0
rfoot -9.54894 -24.419 0
rtoes 6.50349 0 0
lowerback 14.9675 2.72513 -3.81528
upperback -1.09073 3.1481 2.77924
thorax -9.75399 1.77823 4.50668
lowerneck 3.13157 -13.1949 -14.5692
upperneck -1.76294 -18.7147 20.4907
head 2.64711 -9.63385 7.75003
lclavicle 1.5601e-14 1.95875e-14 0
lhumerus -51.5895 -41.9654 115.752
lradius 97.4721 0 0
lwrist 34.1335 0 0
lhand -6.86098 38.8422 0
lfingers 7.12502 0 0
lthumb 18.9994 67.8663 0
rclavicle 1.5601e-14 1.95875e-14 0
rhumerus 48.0117 24.1327 -25.1773
rradius 95.2643 0 0
rwrist -10.8531 0 0
rhand 1.48891 -28.4383 0
rfingers 7.12502 0 0
rthumb 26.9608 -55.9544 0
1738
root -4.74011 15.5404 27.0125 913.586 9.80977 194.692
lfemur -44.2174 18.4612 -17.6951
ltibia 66.2557 0 0
lfoot -14.9941 29.397 0
ltoes -8.63365 0 0
rfemur -25.3353 -20.8732 19.2868
rtibia 65.885 0 0
rfoot -9.72464 -24.3825 0
rtoes 5.9423 0 0
lowerback 14.9515 2.8511 -3.70709
upperback -1.09323 3.33069 2.69968
thorax -9.74815 1.85837 4.31559
lowerneck 2.90138 -12.9774 -14.4008
upperneck -1.55917 -18.3901 20.2445
head 2.65374 -9.45243 7.66349
lclavicle 1.24095e-14 1.87148e-14 0
lhumerus -52.3246 -41.1526 115.423
lradius 97.7453 0 0
lwrist 33.499 0 0
lhand -7.1144 38.5001 0
lfingers 7.12502 0 0
lthumb 18.7555 67.5459 0
rclavicle 1.24095e-14 1.87148e-14 0
rhumerus 47.0126 23.3273 -25.9185
rradius 93.1992 0 0
rwrist -10.1393 0 0
rhand 0.827949 -28.5671 0
rfingers 7.12502 0 0
rthumb 26.3273 -56.1659 0
1739
root -4.66148 15.5401 27.0439 914.069 12.2884 195.138
lfemur -43.7737 18.0945 -17.0804
ltibia 66.6435 0 0
lfoot -14.7259 28.8971 0
ltoes -9.29617 0 0
rfemur -25.5589 -21.4923 19.6416
rtibia 65.5175 0 0
rfoot -9.90035 -24.3461 0
rtoes 5.38111 0 0
lowerback 14.9354 2.97708 -3.5989
upperback -1.09573 3.51328 2.62012
thorax -9.7423 1.93852 4.1245
lowerneck 2.6712 -12.7598 -14.2324
upperneck -1.3554 -18.0656 19.9983
head 2.66036 -9.271 7.57695
lclavicle 9.21805e-15 1.78421e-14 0
lhumerus -53.0597 -40.3398 115.094
lradius 98.0184 0 0
lwrist 32.8646 0 0
lhand -7.36782 38.1579 0
lfingers 7.12502 0 0
lthumb 18.5117 67.2255 0
rclavicle 9.21805e-15 1.78421e-14 0
rhumerus 46.0136 22.5218 -26.6596
rradius 91.134 0 0
rwrist -9.42548 0 0
rhand 0.166985 -28.6959 0
rfingers 7.12502 0 0
rthumb 25.6937 -56.3774 0
1740
root -4.58284 15.5398 27.0752 914.552 14.767 195.584
lfemur -43.33 17.7279 -16.4656
ltibia 67.0312 0 0
lfoot -14.4576 28.3973 0
ltoes -9.9587 0 0
rfemur -25.7825 -22.1113 19.9964
rtibia 65.1499 0 0
rfoot -10.0761 -24.3096 0
rtoes 4.81993 0 0
lowerback 14.9193 3.10305 -3.49071
upperback -1.09824 3.69587 2.54057
thorax -9.73646 2.01867 3.93341
lowerneck 2.44101 -12.5423 -14.0641
upperneck -1.15163 -17.741 19.752
head 2.66699 -9.08958 7.4904
lclavicle 6.02658e-15 1.69694e-14 0
lhumerus -53.7949 -39.527 114.766
lradius 98.2915 0 0
lwrist 32.2301 0 0
lhand -7.62124 37.8158 0
lfingers 7.12502 0 0
lthumb 18.2678 66.9051 0
rclavicle 6.02658e-15 1.69694e-14 0
rhumerus 45.0145 21.7164 -27.4007
rradius 89.0689 0 0
rwrist -8.71167 0 0
rhand -0.493978 -28.8247 0
rfingers 7.12502 0 0
rthumb 25.0602 -56.5889 0
1741
root -4.5042 15.5395 27.1066 915.034 17.2456 196.031
lfemur -42.8863 17.3612 -15.8509
ltibia 67.4189 0 0
lfoot -14.1894 27.8975 0
ltoes -10.6212 0 0
rfemur -26.0061 -22.7304 20.3512
rtibia 64.7824 0 0
rfoot -10.2518 -24.2731 0
rtoes 4.25874 0 0
lowerback 14.9032 3.22903 -3.38253
upperback -1.10074 3.87845 2.46101
thorax -9.73061 2.09881 3.74232
lowerneck 2.21083 -12.3247 -13.8957
upperneck -0.947855 -17.4164 19.5058
head 2.67361 -8.90815 7.40386
lclavicle 2.83511e-15 1.60967e-14 0
lhumerus -54.53 -38.7142 114.437
lradius 98.5647 0 0
lwrist 31.5956 0 0
lhand -7.87466 37.4736 0
lfingers 7.12502 0 0
lthumb 18.0239 66.5847 0
rclavicle 2.83511e-15 1.60967e-14 0
rhumerus 44.0154 20.911 -28.1418
rradius 87.0038 0 0
rwrist -7.99786 0 0
rhand -1.15494 -28.9535 0
rfingers 7.12502 0 0
rthumb 24.4267 -56.8004 0
1742
root -4.42557 15.5392 27.138 915.517 19.7242 196.477
lfemur -42.4426 16.9945 -15.2361
ltibia 67.8067 0 0
lfoot -13.9211 27.3977 0
ltoes -11.2838 0 0
rfemur -26.2297 -23.3495 20.7059
rtibia 64.4149 0 0
rfoot -10.4275 -24.2366 0
rtoes 3.69755 0 0
lowerback 14.8871 3.355 -3.27434
upperback -1.10324 4.06104 2.38145
thorax -9.72477 2.17896 3.55123
lowerneck 1.98064 -12.1072 -13.7273
upperneck -0.744083 -17.0919 19.2596
head 2.68024 -8.72673 7.31732
lclavicle -3.56351e-16 1.5224e-14 0
lhumerus -55.2651 -37.9014 114.108
lradius 98.8378 0 0
lwrist 30.9611 0 0
lhand -8.12808 37.1315 0
lfingers 7.12502 0 0
lthumb 17.7801 66.2643 0
rclavicle -3.56351e-16 1.5224e-14 0
rhumerus 43.0164 20.1056 -28.8829
rradius 84.9387 0 0
rwrist -7.28406 0 0
rhand -1.8159 -29.0823 0
rfingers 7.12502 0 0
rthumb 23.7932 -57.0119 0
1743
root -4.34693 15.5389 27.1693 916 22.2028 196.923
lfemur -41.9989 16.6278 -14.6214
ltibia 68.1944 0 0
lfoot -13.6529 26.8979 0
ltoes -11.9463 0 0
rfemur -26.4533 -23.9685 21.0607
rtibia 64.0474 0 0
rfoot -10.6032 -24.2001 0
rtoes 3.13637 0 0
lowerback 14.871 3.48097 -3.16615
upperback -1.10574 4.24363 2.30189
thorax -9.71893 2.25911 3.36014
lowerneck 1.75045 -11.8896 -13.559
upperneck -0.540311 -16.7673 19.0133
head 2.68687 -8.5453 7.23078
lclavicle -3.54782e-15 1.43513e-14 0
lhumerus -56.0002 -37.0886 113.779
lradius 99.111 0 0
lwrist 30.3266 0 0
lhand -8.3815 36.7894 0
lfingers 7.12502 0 0
lthumb 17.5362 65.9439 0
rclavicle -3.54782e-15 1.43513e-14 0
rhumerus 42.0173 19.3002 -29.624
rradius 82.8736 0 0
rwrist -6.57025 0 0
rhand -2.47687 -29.2111 0
rfingers 7.12502 0 0
rthumb 23.1596 -57.2234 0
